<?xml version="1.0" encoding="UTF-8" standalone="no"?>
<!DOCTYPE svg PUBLIC "-//W3C//DTD SVG 1.1//EN"
 "http://www.w3.org/Graphics/SVG/1.1/DTD/svg11.dtd">
<!-- Generated by graphviz version 2.40.1 (0)
 -->
<!-- Title: ML_Lib_Architecture Pages: 1 -->
<svg width="708pt" height="665pt"
 viewBox="0.00 0.00 708.00 665.00" xmlns="http://www.w3.org/2000/svg" xmlns:xlink="http://www.w3.org/1999/xlink">
<g id="graph0" class="graph" transform="scale(1 1) rotate(0) translate(4 661)">
<title>ML_Lib_Architecture</title>
<polygon fill="#ffffff" stroke="transparent" points="-4,4 -4,-661 704,-661 704,4 -4,4"/>
<g id="clust1" class="cluster">
<title>cluster_kernel</title>
<polygon fill="#e6f3ff" stroke="#000000" points="8,-92 8,-580 692,-580 692,-92 8,-92"/>
<text text-anchor="middle" x="350" y="-564.8" font-family="Times,serif" font-size="14.00" fill="#000000">Linux Kernel</text>
</g>
<g id="clust2" class="cluster">
<title>cluster_lib</title>
<polygon fill="#ffffff" stroke="#000000" points="202,-100 202,-401 684,-401 684,-100 202,-100"/>
<text text-anchor="middle" x="443" y="-385.8" font-family="Times,serif" font-size="14.00" fill="#000000">lib/ml&#45;lib/</text>
</g>
<g id="clust3" class="cluster">
<title>cluster_test</title>
<polygon fill="#ffffff" stroke="#000000" points="16,-213 16,-549 194,-549 194,-213 16,-213"/>
<text text-anchor="middle" x="105" y="-533.8" font-family="Times,serif" font-size="14.00" fill="#000000">Test Driver</text>
</g>
<!-- ml_lib_core -->
<g id="node1" class="node">
<title>ml_lib_core</title>
<polygon fill="#d4edda" stroke="#000000" points="382.5,-370 255.5,-370 255.5,-332 382.5,-332 382.5,-370"/>
<text text-anchor="middle" x="319" y="-354.8" font-family="Arial" font-size="14.00" fill="#000000">ML Library Core</text>
<text text-anchor="middle" x="319" y="-339.8" font-family="Arial" font-size="14.00" fill="#000000">(ml_lib.h, ml_lib.c)</text>
</g>
<!-- ml_lib_model -->
<g id="node2" class="node">
<title>ml_lib_model</title>
<polygon fill="#d4edda" stroke="#000000" points="427.5,-146 210.5,-146 210.5,-108 427.5,-108 427.5,-146"/>
<text text-anchor="middle" x="319" y="-130.8" font-family="Arial" font-size="14.00" fill="#000000">ML Model Framework</text>
<text text-anchor="middle" x="319" y="-115.8" font-family="Arial" font-size="14.00" fill="#000000">(ml_lib_model.h, ml_lib_model.c)</text>
</g>
<!-- ml_lib_core&#45;&gt;ml_lib_model -->
<g id="edge3" class="edge">
<title>ml_lib_core&#45;&gt;ml_lib_model</title>
<path fill="none" stroke="#000000" d="M319,-331.9086C319,-320.9599 319,-306.9575 319,-294.5 319,-294.5 319,-294.5 319,-183.5 319,-174.6435 319,-165.0061 319,-156.2404"/>
<polygon fill="#000000" stroke="#000000" points="322.5001,-156.0914 319,-146.0914 315.5001,-156.0914 322.5001,-156.0914"/>
<text text-anchor="middle" x="380" y="-235.3" font-family="Arial" font-size="14.00" fill="#000000">Model management</text>
</g>
<!-- ml_lib_dataset -->
<g id="node3" class="node">
<title>ml_lib_dataset</title>
<polygon fill="#d4edda" stroke="#000000" points="676,-146 446,-146 446,-108 676,-108 676,-146"/>
<text text-anchor="middle" x="561" y="-130.8" font-family="Arial" font-size="14.00" fill="#000000">Dataset Management</text>
<text text-anchor="middle" x="561" y="-115.8" font-family="Arial" font-size="14.00" fill="#000000">(ml_lib_dataset.h, ml_lib_dataset.c)</text>
</g>
<!-- ml_lib_core&#45;&gt;ml_lib_dataset -->
<g id="edge4" class="edge">
<title>ml_lib_core&#45;&gt;ml_lib_dataset</title>
<path fill="none" stroke="#000000" d="M382.5561,-345.2672C441.1189,-338.1726 519,-323.3198 519,-294.5 519,-294.5 519,-294.5 519,-183.5 519,-172.6632 524.0381,-162.5555 530.6244,-153.9718"/>
<polygon fill="#000000" stroke="#000000" points="533.4171,-156.0928 537.2996,-146.235 528.1171,-151.52 533.4171,-156.0928"/>
<text text-anchor="middle" x="576" y="-235.3" font-family="Arial" font-size="14.00" fill="#000000">Dataset operations</text>
</g>
<!-- hardware -->
<g id="node7" class="node">
<title>hardware</title>
<polygon fill="#e2e3e5" stroke="#000000" points="408,-36 230,-36 230,0 408,0 408,-36"/>
<text text-anchor="middle" x="319" y="-14.3" font-family="Arial" font-size="14.00" fill="#000000">AI Hardware (NPUs/TPUs)</text>
</g>
<!-- ml_lib_model&#45;&gt;hardware -->
<g id="edge5" class="edge">
<title>ml_lib_model&#45;&gt;hardware</title>
<path fill="none" stroke="#000000" d="M319,-107.7639C319,-90.7467 319,-65.6911 319,-46.3728"/>
<polygon fill="#000000" stroke="#000000" points="322.5001,-46.318 319,-36.3181 315.5001,-46.3181 322.5001,-46.318"/>
<text text-anchor="middle" x="387" y="-72.8" font-family="Arial" font-size="14.00" fill="#000000">Hardware acceleration</text>
<text text-anchor="middle" x="387" y="-57.8" font-family="Arial" font-size="14.00" fill="#000000">(optional)</text>
</g>
<!-- test_driver -->
<g id="node4" class="node">
<title>test_driver</title>
<polygon fill="#fff3cd" stroke="#000000" points="185.5,-518 24.5,-518 24.5,-480 185.5,-480 185.5,-518"/>
<text text-anchor="middle" x="105" y="-502.8" font-family="Arial" font-size="14.00" fill="#000000">Character Device Driver</text>
<text text-anchor="middle" x="105" y="-487.8" font-family="Arial" font-size="14.00" fill="#000000">(ml_lib_char_dev.c)</text>
</g>
<!-- test_driver&#45;&gt;ml_lib_core -->
<g id="edge2" class="edge">
<title>test_driver&#45;&gt;ml_lib_core</title>
<path fill="none" stroke="#000000" d="M132.5387,-479.9546C170.8754,-453.4413 240.3894,-405.3662 282.8554,-375.9972"/>
<polygon fill="#000000" stroke="#000000" points="284.9942,-378.7735 291.2281,-370.2067 281.0125,-373.0162 284.9942,-378.7735"/>
<text text-anchor="middle" x="232.5" y="-431.8" font-family="Arial" font-size="14.00" fill="#000000">API calls</text>
</g>
<!-- sysfs_proc -->
<g id="node5" class="node">
<title>sysfs_proc</title>
<polygon fill="#fff3cd" stroke="#000000" points="173.5,-257 24.5,-257 24.5,-221 173.5,-221 173.5,-257"/>
<text text-anchor="middle" x="99" y="-235.3" font-family="Arial" font-size="14.00" fill="#000000">Sysfs/Procfs Interface</text>
</g>
<!-- test_driver&#45;&gt;sysfs_proc -->
<g id="edge6" class="edge">
<title>test_driver&#45;&gt;sysfs_proc</title>
<path fill="none" stroke="#000000" d="M92.1326,-479.8678C85.1785,-467.7015 78,-451.3129 78,-435.5 78,-435.5 78,-435.5 78,-294.5 78,-284.9939 80.7283,-275.1301 84.2181,-266.4015"/>
<polygon fill="#000000" stroke="#000000" points="87.4867,-267.6659 88.377,-257.1085 81.0974,-264.8064 87.4867,-267.6659"/>
<text text-anchor="middle" x="132" y="-347.3" font-family="Arial" font-size="14.00" fill="#000000">Debug/monitoring</text>
</g>
<!-- userspace -->
<g id="node6" class="node">
<title>userspace</title>
<polygon fill="#e2e3e5" stroke="#000000" points="184,-657 26,-657 26,-621 184,-621 184,-657"/>
<text text-anchor="middle" x="105" y="-635.3" font-family="Arial" font-size="14.00" fill="#000000">Userspace Applications</text>
</g>
<!-- userspace&#45;&gt;test_driver -->
<g id="edge1" class="edge">
<title>userspace&#45;&gt;test_driver</title>
<path fill="none" stroke="#000000" d="M105,-620.9841C105,-597.5404 105,-556.2751 105,-528.2994"/>
<polygon fill="#000000" stroke="#000000" points="108.5001,-528.293 105,-518.293 101.5001,-528.2931 108.5001,-528.293"/>
<text text-anchor="middle" x="166" y="-591.8" font-family="Arial" font-size="14.00" fill="#000000">ioctl(), read(), write()</text>
</g>
</g>
</svg>
